<mxfile host="app.diagrams.net" modified="2021-03-16T01:39:51.537Z" agent="5.0 (Windows NT 10.0; Win64; x64) AppleWebKit/537.36 (KHTML, like Gecko) Chrome/89.0.4389.82 Safari/537.36" etag="HtT6qdXgoKyk_NnD4eD8" version="14.4.8" type="github">
  <diagram id="C5RBs43oDa-KdzZeNtuy" name="Page-1">
    <mxGraphModel dx="689" dy="559" grid="1" gridSize="10" guides="1" tooltips="1" connect="1" arrows="1" fold="1" page="1" pageScale="1" pageWidth="827" pageHeight="1169" math="0" shadow="0">
      <root>
        <mxCell id="WIyWlLk6GJQsqaUBKTNV-0" />
        <mxCell id="WIyWlLk6GJQsqaUBKTNV-1" parent="WIyWlLk6GJQsqaUBKTNV-0" />
        <mxCell id="gzWh6iva3rg4xpFQuiqM-4" value="xDemic" style="rounded=0;whiteSpace=wrap;html=1;" parent="WIyWlLk6GJQsqaUBKTNV-1" vertex="1">
          <mxGeometry x="320" y="190" width="200" height="20" as="geometry" />
        </mxCell>
        <mxCell id="gzWh6iva3rg4xpFQuiqM-5" value="- NUM_OF_MALWARE: int&lt;br&gt;- NUM_OF_DEVICES: int&lt;br&gt;- NUM_OF_FRAMES: int" style="rounded=0;whiteSpace=wrap;html=1;" parent="WIyWlLk6GJQsqaUBKTNV-1" vertex="1">
          <mxGeometry x="320" y="210" width="200" height="50" as="geometry" />
        </mxCell>
        <mxCell id="PkQqVzZAfAscNi_TRfAs-8" style="edgeStyle=orthogonalEdgeStyle;rounded=0;orthogonalLoop=1;jettySize=auto;html=1;exitX=0.5;exitY=0;exitDx=0;exitDy=0;entryX=0.5;entryY=1;entryDx=0;entryDy=0;" edge="1" parent="WIyWlLk6GJQsqaUBKTNV-1" source="gzWh6iva3rg4xpFQuiqM-7" target="gzWh6iva3rg4xpFQuiqM-5">
          <mxGeometry relative="1" as="geometry" />
        </mxCell>
        <mxCell id="gzWh6iva3rg4xpFQuiqM-7" value="Device" style="rounded=0;whiteSpace=wrap;html=1;" parent="WIyWlLk6GJQsqaUBKTNV-1" vertex="1">
          <mxGeometry x="300" y="300" width="240" height="20" as="geometry" />
        </mxCell>
        <mxCell id="gzWh6iva3rg4xpFQuiqM-8" value="- ID: int&lt;br&gt;- malwareList: ArrayList&amp;lt;Malware&amp;gt;&lt;br&gt;- patchedMalwareList: ArrayList&amp;lt;Malware&amp;gt;&lt;br&gt;-timeToPatch: int&lt;br&gt;- resistance: double" style="rounded=0;whiteSpace=wrap;html=1;" parent="WIyWlLk6GJQsqaUBKTNV-1" vertex="1">
          <mxGeometry x="300" y="320" width="240" height="80" as="geometry" />
        </mxCell>
        <mxCell id="gzWh6iva3rg4xpFQuiqM-9" value="+ getID(): int&lt;br&gt;+ getTimeToPatch(): int&lt;br&gt;+ getResistance(): double&lt;br&gt;+ getMalware(): ArrayList&amp;lt;Malware&amp;gt;&lt;br&gt;+ isInfected(): boolean&lt;br&gt;+ initialInfect(malware: Malware): void&lt;br&gt;+ infect(malware: Malware): void&lt;br&gt;+ patch(malware: Malware): void&lt;br&gt;+ printInfo(): void" style="rounded=0;whiteSpace=wrap;html=1;" parent="WIyWlLk6GJQsqaUBKTNV-1" vertex="1">
          <mxGeometry x="300" y="400" width="240" height="130" as="geometry" />
        </mxCell>
        <mxCell id="gzWh6iva3rg4xpFQuiqM-14" style="edgeStyle=orthogonalEdgeStyle;rounded=0;orthogonalLoop=1;jettySize=auto;html=1;entryX=0.75;entryY=1;entryDx=0;entryDy=0;" parent="WIyWlLk6GJQsqaUBKTNV-1" source="gzWh6iva3rg4xpFQuiqM-10" target="gzWh6iva3rg4xpFQuiqM-5" edge="1">
          <mxGeometry relative="1" as="geometry">
            <mxPoint x="450" y="262" as="targetPoint" />
            <Array as="points">
              <mxPoint x="660" y="280" />
              <mxPoint x="470" y="280" />
            </Array>
          </mxGeometry>
        </mxCell>
        <mxCell id="gzWh6iva3rg4xpFQuiqM-10" value="Malware" style="rounded=0;whiteSpace=wrap;html=1;" parent="WIyWlLk6GJQsqaUBKTNV-1" vertex="1">
          <mxGeometry x="560" y="300" width="200" height="20" as="geometry" />
        </mxCell>
        <mxCell id="gzWh6iva3rg4xpFQuiqM-11" value="- name: String&lt;br&gt;- chanceInfection: double&lt;br&gt;- initialInfected: double&lt;br&gt;- patchRelease: int" style="rounded=0;whiteSpace=wrap;html=1;" parent="WIyWlLk6GJQsqaUBKTNV-1" vertex="1">
          <mxGeometry x="560" y="320" width="200" height="60" as="geometry" />
        </mxCell>
        <mxCell id="gzWh6iva3rg4xpFQuiqM-12" value="+ getName(): String&lt;br&gt;+ getChanceInfection(): double&lt;br&gt;+ getInitialInfected(): double&lt;br&gt;+ setPatchRelease(): void&lt;br&gt;+ getPatchRelease(): int&lt;br&gt;+ printInfo(): void" style="rounded=0;whiteSpace=wrap;html=1;" parent="WIyWlLk6GJQsqaUBKTNV-1" vertex="1">
          <mxGeometry x="560" y="380" width="200" height="90" as="geometry" />
        </mxCell>
        <mxCell id="PkQqVzZAfAscNi_TRfAs-0" value="Main" style="rounded=0;whiteSpace=wrap;html=1;" vertex="1" parent="WIyWlLk6GJQsqaUBKTNV-1">
          <mxGeometry x="320" y="90" width="200" height="20" as="geometry" />
        </mxCell>
        <mxCell id="PkQqVzZAfAscNi_TRfAs-3" value="" style="edgeStyle=orthogonalEdgeStyle;rounded=0;orthogonalLoop=1;jettySize=auto;html=1;" edge="1" parent="WIyWlLk6GJQsqaUBKTNV-1" target="PkQqVzZAfAscNi_TRfAs-1">
          <mxGeometry relative="1" as="geometry">
            <mxPoint x="420" y="190" as="sourcePoint" />
          </mxGeometry>
        </mxCell>
        <mxCell id="PkQqVzZAfAscNi_TRfAs-1" value="+ main(args[]: String): void&lt;br&gt;+ start(primaryStage: Stage): void" style="rounded=0;whiteSpace=wrap;html=1;" vertex="1" parent="WIyWlLk6GJQsqaUBKTNV-1">
          <mxGeometry x="320" y="110" width="200" height="40" as="geometry" />
        </mxCell>
        <mxCell id="PkQqVzZAfAscNi_TRfAs-7" style="edgeStyle=orthogonalEdgeStyle;rounded=0;orthogonalLoop=1;jettySize=auto;html=1;exitX=0.5;exitY=0;exitDx=0;exitDy=0;entryX=0.25;entryY=1;entryDx=0;entryDy=0;" edge="1" parent="WIyWlLk6GJQsqaUBKTNV-1" source="PkQqVzZAfAscNi_TRfAs-4" target="gzWh6iva3rg4xpFQuiqM-5">
          <mxGeometry relative="1" as="geometry" />
        </mxCell>
        <mxCell id="PkQqVzZAfAscNi_TRfAs-4" value="Frame" style="rounded=0;whiteSpace=wrap;html=1;" vertex="1" parent="WIyWlLk6GJQsqaUBKTNV-1">
          <mxGeometry x="80" y="300" width="200" height="20" as="geometry" />
        </mxCell>
        <mxCell id="PkQqVzZAfAscNi_TRfAs-5" value="- ID: int&lt;br&gt;- malwareList: ArrayList&amp;lt;Malware&amp;gt;&lt;br&gt;- DeviceList: ArrayList&amp;lt;Device&amp;gt;" style="rounded=0;whiteSpace=wrap;html=1;" vertex="1" parent="WIyWlLk6GJQsqaUBKTNV-1">
          <mxGeometry x="80" y="320" width="200" height="50" as="geometry" />
        </mxCell>
        <mxCell id="PkQqVzZAfAscNi_TRfAs-6" value="+ getID(): int&lt;br&gt;+ initialize(): void&lt;br&gt;+ checkInfected(): double&lt;br&gt;+ checkInfected(): double&lt;br&gt;+checkPatches(): void&lt;br&gt;+ interact(): void&lt;br&gt;+ progress(): void&lt;br&gt;+ printFrame(): void" style="rounded=0;whiteSpace=wrap;html=1;" vertex="1" parent="WIyWlLk6GJQsqaUBKTNV-1">
          <mxGeometry x="80" y="370" width="200" height="120" as="geometry" />
        </mxCell>
      </root>
    </mxGraphModel>
  </diagram>
</mxfile>
